<svg width="136" height="10" viewBox="0 0 136 10" fill="none" xmlns="http://www.w3.org/2000/svg">
<path d="M0.673173 9.18945L3.84117 0.957453H6.04917L9.21717 9.18945H7.28517L6.69717 7.56945H3.10917L2.52117 9.18945H0.673173ZM3.62517 6.12945H6.18117L5.44917 4.10145C5.41717 4.01345 5.37717 3.90945 5.32917 3.78945C5.28917 3.66145 5.24517 3.52145 5.19717 3.36945C5.14917 3.21745 5.10117 3.06945 5.05317 2.92545C5.01317 2.77345 4.97317 2.63745 4.93317 2.51745H4.86117C4.82117 2.66945 4.76917 2.84945 4.70517 3.05745C4.64117 3.25745 4.57717 3.45345 4.51317 3.64545C4.44917 3.82945 4.39717 3.98145 4.35717 4.10145L3.62517 6.12945ZM12.5968 9.18945V0.957453H14.3848V9.18945H12.5968ZM18.6061 9.18945V0.957453H23.1181C23.7261 0.957453 24.2301 1.06545 24.6301 1.28145C25.0381 1.49745 25.3421 1.80145 25.5421 2.19345C25.7421 2.57745 25.8421 3.02145 25.8421 3.52545C25.8421 4.06145 25.7221 4.53745 25.4821 4.95345C25.2421 5.36145 24.8941 5.67345 24.4381 5.88945L26.1181 9.18945H24.1381L22.6861 6.18945H20.3941V9.18945H18.6061ZM20.3941 4.77345H22.8781C23.2381 4.77345 23.5181 4.66545 23.7181 4.44945C23.9181 4.22545 24.0181 3.92545 24.0181 3.54945C24.0181 3.30945 23.9741 3.10545 23.8861 2.93745C23.7981 2.76145 23.6701 2.62945 23.5021 2.54145C23.3341 2.45345 23.1261 2.40945 22.8781 2.40945H20.3941V4.77345ZM29.7718 9.18945V0.957453H34.0558C34.6478 0.957453 35.1398 1.06945 35.5318 1.29345C35.9318 1.50945 36.2318 1.81745 36.4318 2.21745C36.6398 2.60945 36.7438 3.07745 36.7438 3.62145C36.7438 4.16545 36.6358 4.64145 36.4198 5.04945C36.2118 5.44945 35.9038 5.76145 35.4958 5.98545C35.0878 6.20945 34.5878 6.32145 33.9958 6.32145H31.5598V9.18945H29.7718ZM31.5598 4.85745H33.7558C34.1318 4.85745 34.4198 4.74945 34.6198 4.53345C34.8278 4.31745 34.9318 4.01745 34.9318 3.63345C34.9318 3.36945 34.8878 3.14945 34.7998 2.97345C34.7118 2.79745 34.5798 2.66145 34.4038 2.56545C34.2358 2.46945 34.0198 2.42145 33.7558 2.42145H31.5598V4.85745ZM44.1797 9.33345C43.3077 9.33345 42.5557 9.17745 41.9237 8.86545C41.2917 8.55345 40.8077 8.08145 40.4717 7.44945C40.1357 6.81745 39.9677 6.02545 39.9677 5.07345C39.9677 4.10545 40.1357 3.30945 40.4717 2.68545C40.8077 2.05345 41.2917 1.58545 41.9237 1.28145C42.5557 0.969453 43.3077 0.813453 44.1797 0.813453C45.0677 0.813453 45.8237 0.969453 46.4477 1.28145C47.0797 1.58545 47.5637 2.05345 47.8997 2.68545C48.2357 3.30945 48.4037 4.10545 48.4037 5.07345C48.4037 6.02545 48.2357 6.81745 47.8997 7.44945C47.5637 8.08145 47.0797 8.55345 46.4477 8.86545C45.8237 9.17745 45.0677 9.33345 44.1797 9.33345ZM44.1797 7.86945C44.5717 7.86945 44.9157 7.81345 45.2117 7.70145C45.5077 7.58945 45.7557 7.42145 45.9557 7.19745C46.1557 6.97345 46.3077 6.70145 46.4117 6.38145C46.5157 6.05345 46.5677 5.68145 46.5677 5.26545V4.89345C46.5677 4.46945 46.5157 4.09345 46.4117 3.76545C46.3077 3.43745 46.1557 3.16545 45.9557 2.94945C45.7557 2.72545 45.5077 2.55745 45.2117 2.44545C44.9157 2.33345 44.5717 2.27745 44.1797 2.27745C43.7957 2.27745 43.4557 2.33345 43.1597 2.44545C42.8637 2.55745 42.6157 2.72545 42.4157 2.94945C42.2157 3.16545 42.0637 3.43745 41.9597 3.76545C41.8637 4.09345 41.8157 4.46945 41.8157 4.89345V5.26545C41.8157 5.68145 41.8637 6.05345 41.9597 6.38145C42.0637 6.70145 42.2157 6.97345 42.4157 7.19745C42.6157 7.42145 42.8637 7.58945 43.1597 7.70145C43.4557 7.81345 43.7957 7.86945 44.1797 7.86945ZM52.2554 9.18945V0.957453H56.7674C57.3754 0.957453 57.8794 1.06545 58.2794 1.28145C58.6874 1.49745 58.9914 1.80145 59.1914 2.19345C59.3914 2.57745 59.4914 3.02145 59.4914 3.52545C59.4914 4.06145 59.3714 4.53745 59.1314 4.95345C58.8914 5.36145 58.5434 5.67345 58.0874 5.88945L59.7674 9.18945H57.7874L56.3354 6.18945H54.0434V9.18945H52.2554ZM54.0434 4.77345H56.5274C56.8874 4.77345 57.1674 4.66545 57.3674 4.44945C57.5674 4.22545 57.6674 3.92545 57.6674 3.54945C57.6674 3.30945 57.6234 3.10545 57.5354 2.93745C57.4474 2.76145 57.3194 2.62945 57.1514 2.54145C56.9834 2.45345 56.7754 2.40945 56.5274 2.40945H54.0434V4.77345ZM65.238 9.18945V2.45745H62.598V0.957453H69.6901V2.45745H67.0381V9.18945H65.238ZM78.053 9.18945V0.957453H82.337C82.929 0.957453 83.421 1.06945 83.813 1.29345C84.213 1.50945 84.513 1.81745 84.713 2.21745C84.921 2.60945 85.025 3.07745 85.025 3.62145C85.025 4.16545 84.917 4.64145 84.701 5.04945C84.493 5.44945 84.185 5.76145 83.777 5.98545C83.369 6.20945 82.869 6.32145 82.277 6.32145H79.841V9.18945H78.053ZM79.841 4.85745H82.037C82.413 4.85745 82.701 4.74945 82.901 4.53345C83.109 4.31745 83.213 4.01745 83.213 3.63345C83.213 3.36945 83.169 3.14945 83.081 2.97345C82.993 2.79745 82.861 2.66145 82.685 2.56545C82.517 2.46945 82.301 2.42145 82.037 2.42145H79.841V4.85745ZM88.621 9.18945V0.957453H90.409V9.18945H88.621ZM98.3144 9.33345C97.4584 9.33345 96.7264 9.18545 96.1184 8.88945C95.5104 8.58545 95.0464 8.11745 94.7264 7.48545C94.4144 6.85345 94.2584 6.04945 94.2584 5.07345C94.2584 3.63345 94.6104 2.56545 95.3144 1.86945C96.0264 1.16545 97.0264 0.813453 98.3144 0.813453C99.0184 0.813453 99.6504 0.933453 100.21 1.17345C100.77 1.41345 101.21 1.77345 101.53 2.25345C101.858 2.73345 102.022 3.33745 102.022 4.06545H100.222C100.222 3.68145 100.142 3.35745 99.9824 3.09345C99.8304 2.82945 99.6104 2.62945 99.3224 2.49345C99.0424 2.34945 98.7144 2.27745 98.3384 2.27745C97.8264 2.27745 97.4024 2.37745 97.0664 2.57745C96.7384 2.77745 96.4944 3.07345 96.3344 3.46545C96.1824 3.84945 96.1064 4.32145 96.1064 4.88145V5.25345C96.1064 5.82945 96.1864 6.31345 96.3464 6.70545C96.5064 7.08945 96.7464 7.38145 97.0664 7.58145C97.3944 7.77345 97.8144 7.86945 98.3264 7.86945C98.7264 7.86945 99.0744 7.80145 99.3704 7.66545C99.6664 7.52945 99.8944 7.32945 100.054 7.06545C100.214 6.80145 100.294 6.47745 100.294 6.09345H102.022C102.022 6.82145 101.862 7.42545 101.542 7.90545C101.23 8.38545 100.794 8.74545 100.234 8.98545C99.6744 9.21745 99.0344 9.33345 98.3144 9.33345ZM105.831 9.18945V0.957453H107.619V4.70145L111.123 0.957453H113.331L110.187 4.30545L113.391 9.18945H111.255L108.951 5.54145L107.619 6.74145V9.18945H105.831ZM120.49 9.33345C119.738 9.33345 119.09 9.21345 118.546 8.97345C118.01 8.73345 117.598 8.37345 117.31 7.89345C117.022 7.40545 116.878 6.80145 116.878 6.08145V0.957453H118.678V6.03345C118.678 6.62545 118.834 7.08145 119.146 7.40145C119.458 7.71345 119.906 7.86945 120.49 7.86945C121.074 7.86945 121.522 7.71345 121.834 7.40145C122.154 7.08145 122.314 6.62545 122.314 6.03345V0.957453H124.114V6.08145C124.114 6.80145 123.97 7.40545 123.682 7.89345C123.394 8.37345 122.978 8.73345 122.434 8.97345C121.898 9.21345 121.25 9.33345 120.49 9.33345ZM128.303 9.18945V0.957453H132.587C133.179 0.957453 133.671 1.06945 134.063 1.29345C134.463 1.50945 134.763 1.81745 134.963 2.21745C135.171 2.60945 135.275 3.07745 135.275 3.62145C135.275 4.16545 135.167 4.64145 134.951 5.04945C134.743 5.44945 134.435 5.76145 134.027 5.98545C133.619 6.20945 133.119 6.32145 132.527 6.32145H130.091V9.18945H128.303ZM130.091 4.85745H132.287C132.663 4.85745 132.951 4.74945 133.151 4.53345C133.359 4.31745 133.463 4.01745 133.463 3.63345C133.463 3.36945 133.419 3.14945 133.331 2.97345C133.243 2.79745 133.111 2.66145 132.935 2.56545C132.767 2.46945 132.551 2.42145 132.287 2.42145H130.091V4.85745Z" fill="white"/>
</svg>
